# xmcd CD database file
#
# Track frame offsets:
#	150
#	11301
#	23546
#	41879
#	54190
#	75254
#	89742
#	109113
#
# Disc length: 1637 seconds
#
# Revision: 0
# Processed by: cddbd v1.5.2PL0 Copyright (c) Steve Scherf et al.
# Submitted via: CDex 1.70beta2
#
DISCID=4f066308
DTITLE=Camila Barutta - Camicanta
DYEAR=2006
DGENRE=Jazz
TTITLE0=What a Difference a Day Makes (Stanley Adams)
TTITLE1=Stormy Weather (Harold Arlen, Ted Koehler)
TTITLE2=Cry Me a River (Arthur Hamilton)
TTITLE3=Michelle (The Beatles)
TTITLE4=Fly me to The Moon (Bart Howard)
TTITLE5=Chega de Saudade (Antonio Carlos Jobim, Vinicius de Moraes)
TTITLE6=Deusa Do Amor (Moreno Veloso)
TTITLE7=Velha Infancia (Tribalistas)
EXTD=YEAR: 2006
EXTT0=
EXTT1=
EXTT2=
EXTT3=
EXTT4=
EXTT5=
EXTT6=
EXTT7=
PLAYORDER=
